<?xml version="1.0" encoding="iso-8859-1"?>
<!-- Generator: Adobe Illustrator 19.0.0, SVG Export Plug-In . SVG Version: 6.00 Build 0)  -->
<svg version="1.1" id="Capa_1" xmlns="http://www.w3.org/2000/svg" xmlns:xlink="http://www.w3.org/1999/xlink" x="0px" y="0px"
	 viewBox="0 0 511.999 511.999" style="enable-background:new 0 0 511.999 511.999;" xml:space="preserve">
<path style="fill:#FEE377;" d="M491.274,20.684c-32.063-32.063-133,13.807-207.353,64.376
	c-23.545,16.006-46.17,34.232-65.925,53.438l-66.995,221.87l220.031-63.916v-0.01c19.276-19.506,37.622-41.951,53.818-65.405
	C476.677,155.953,523.767,53.176,491.274,20.684z"/>
<path style="fill:#48BD80;" d="M371.031,296.452c-60.107-17.966-143.658-6.049-220.031,63.916
	c59.427-64.865,85.851-143.788,74.673-196.146c-6.881-32.282-22.998-60.955-43.91-81.882c12.837,18.676-0.82,74.443-78.502,159.604
	C44.674,306.17,33.187,368.396,45.024,410.386h-0.01L15.841,439.56c-7.808,7.808-7.808,20.475,0,28.284l28.274,28.274
	c7.808,7.808,20.475,7.808,28.284,0l29.093-29.103v-0.01c44.05,12.367,107.046-2.399,163.103-54.448
	c87.88-81.602,145.407-96.028,164.433-82.951C414.521,315.098,394.576,303.48,371.031,296.452z"/>
<path d="M256.197,354.729c-3.899,3.909-3.899,10.238,0,14.137c3.909,3.909,10.238,3.909,14.147,0c3.899-3.899,3.899-10.228,0-14.137
	C266.435,350.83,260.106,350.83,256.197,354.729z"/>
<path d="M226.056,380.018c-44.713,39.26-87.973,45.394-111.43,38.718c-5.312-1.511-10.842,1.569-12.352,6.879
	c-1.511,5.311,1.569,10.842,6.879,12.352c7.166,2.04,15.111,3.053,23.533,3.053c11.299,0,23.458-1.825,35.744-5.445
	c24.275-7.15,48.763-21.166,70.819-40.533c4.149-3.643,4.559-9.96,0.917-14.11C236.522,376.786,230.205,376.375,226.056,380.018z"/>
<path d="M400.09,12.471c-36.475,13.043-80.867,36.488-121.79,64.321c-20.138,13.691-39.551,28.982-56.821,44.714
	c-8.401-17.309-19.521-33.102-32.644-46.233c-3.653-3.655-9.49-3.924-13.464-0.621c-3.974,3.304-4.774,9.092-1.847,13.351
	c3.728,5.425,4.327,20.536-6.259,45.274c-8.702,20.335-28.152,54.527-71.391,101.929C53.132,282.062,20.108,346.311,33.95,407.311
	L8.772,432.489c-11.695,11.696-11.695,30.727,0,42.423l28.274,28.274c11.721,11.721,30.7,11.724,42.424-0.002l25.103-25.112
	c58.561,13.208,122.423-16.962,166.825-58.19c48.891-45.399,84.222-65.925,105.25-75.151c25.563-11.214,41.144-10.719,46.716-6.887
	c4.259,2.927,10.045,2.127,13.35-1.847c3.304-3.973,3.036-9.809-0.618-13.463c-12.616-12.615-28.729-22.958-47.164-30.391
	c15.467-16.818,30.548-35.738,44.144-55.428c28.459-41.227,52.516-86.212,66.004-123.419c17.469-48.186,17.22-81.725-0.737-99.682
	C480.612-4.119,447.554-4.504,400.09,12.471z M65.329,489.048c-3.907,3.907-10.236,3.908-14.145,0L22.91,460.774
	c-3.907-3.906-3.907-10.238,0-14.144l18.137-18.136c4.247,9.25,9.733,17.442,16.241,24.196c4.65,5.287,14.855,13.139,26.087,18.306
	L65.329,489.048z M368.615,326.42c-32.182,14.119-70.504,41.371-110.823,78.809c-68.972,64.039-150.18,69.543-185.393,34.329
	c-7.996-7.996-14.134-19.019-17.752-31.885c-13.161-46.686,7.773-106.123,56-158.991c35.717-39.155,61.652-76.342,75.001-107.539
	c4.173-9.752,7.085-18.872,8.725-27.188c10.222,15.92,17.558,33.755,21.522,52.354c5.17,24.218,1.453,55.416-10.467,87.846
	c-12.849,34.961-34.22,69.353-61.801,99.458c-3.615,3.946-3.481,10.039,0.302,13.823s9.877,3.917,13.823,0.303
	c64.217-58.828,142.877-81.896,210.418-61.707c9.858,2.942,19.094,6.751,27.515,11.317
	C387.383,319.142,378.304,322.169,368.615,326.42z M480.283,106.481c-12.931,35.668-36.134,78.996-63.661,118.874
	c-14.901,21.577-31.631,42.163-48.627,59.867c-56.275-14.769-117.018-2.553-168.621,27.081
	c31.137-51.774,45.225-107.315,36.077-150.166c-1.507-7.066-3.46-14.079-5.822-20.927c17.849-16.816,38.439-33.285,59.913-47.883
	c39.584-26.922,82.332-49.531,117.28-62.028c38.44-13.746,65.922-15.006,77.382-3.545
	C495.856,39.405,494.463,67.364,480.283,106.481z"/>
<path d="M284.642,185.458c3.904-3.904,3.904-10.235,0-14.139l-14.137-14.137c-3.904-3.904-10.235-3.904-14.139,0
	c-3.904,3.904-3.904,10.235,0,14.139l14.137,14.137C274.407,189.362,280.737,189.362,284.642,185.458z"/>
<path d="M341.2,227.876c-3.904-3.904-10.235-3.904-14.14,0c-3.904,3.904-3.904,10.235,0,14.14l14.137,14.137
	c3.904,3.904,10.235,3.904,14.14,0c3.904-3.904,3.904-10.235,0-14.14L341.2,227.876z"/>
<path d="M348.267,192.526c3.904-3.904,3.904-10.235,0-14.14L334.13,164.25c-3.904-3.904-10.235-3.904-14.14,0
	c-3.904,3.904-3.904,10.235,0,14.14l14.137,14.137C338.032,196.43,344.363,196.431,348.267,192.526z"/>
<path d="M277.573,220.807c-3.904-3.904-10.235-3.904-14.14,0c-3.905,3.904-3.904,10.235,0,14.14l14.137,14.137
	c3.904,3.904,10.235,3.904,14.14,0c3.904-3.904,3.904-10.235,0-14.14L277.573,220.807z"/>
<path d="M404.825,135.969c3.904-3.904,3.904-10.235,0-14.14l-14.137-14.137c-3.904-3.904-10.235-3.904-14.14,0
	c-3.904,3.904-3.904,10.235,0,14.14l14.137,14.137C394.589,139.873,400.92,139.873,404.825,135.969z"/>
<path d="M433.096,65.28c-3.905-3.902-10.235-3.899-14.14,0.005c-3.903,3.906-3.9,10.236,0.005,14.14l14.147,14.137
	c3.904,3.902,10.235,3.901,14.14-0.005c3.903-3.906,3.9-10.236-0.005-14.14L433.096,65.28z"/>
<path d="M341.2,128.9c3.904-3.904,3.904-10.235,0-14.14l-14.137-14.137c-3.904-3.904-10.235-3.904-14.14,0s-3.904,10.235,0,14.14
	L327.06,128.9C330.963,132.805,337.295,132.806,341.2,128.9z"/>
<path d="M397.756,171.318c-3.904-3.904-10.235-3.904-14.14,0c-3.905,3.904-3.904,10.235,0,14.14l14.137,14.137
	c3.904,3.904,10.235,3.904,14.14,0c3.904-3.904,3.904-10.235,0-14.14L397.756,171.318z"/>
<g>
</g>
<g>
</g>
<g>
</g>
<g>
</g>
<g>
</g>
<g>
</g>
<g>
</g>
<g>
</g>
<g>
</g>
<g>
</g>
<g>
</g>
<g>
</g>
<g>
</g>
<g>
</g>
<g>
</g>
</svg>
