<svg id="Capa_1" enable-background="new 0 0 512.183 512.183" height="512" viewBox="0 0 512.183 512.183" width="512" xmlns="http://www.w3.org/2000/svg"><g><g><path d="m264.316 504.683h-17.45c-4.886 0-8.847-3.961-8.847-8.847v-125.244h35.144v125.244c0 4.886-3.961 8.847-8.847 8.847z" fill="#97da7b"/><g><path d="m214.916 197.739h94.323l76.963-40.47c.8-5.86 1.22-11.85 1.22-17.94 0-72.81-59.02-131.83-131.83-131.83s-131.83 59.02-131.83 131.83c0 6.06.42 12.02 1.21 17.86z" fill="#f9f7f8"/><g><path d="m387.421 139.329c0-.732-.016-1.461-.028-2.191-11.168.679-21.903 2.985-31.972 6.682-9.168 3.366-19.384 1.197-26.766-5.197-20.922-18.121-46.28-27.91-73.064-27.91-9.344 0-21.463 3.711-33.371 8.591-15.706 6.436-30.758-10.521-22.642-25.428 18.917-34.743 48.365-76.619 82.692-83.674-8.616-1.771-17.539-2.703-26.68-2.703-72.81 0-131.83 59.02-131.83 131.83 0 5.774.392 11.454 1.112 17.03l15.023 26.021c5.003-2.412 8.178-3.682 8.178-3.682h225.248l13.03-21.439c-.05.004-.101.005-.151.01.801-5.86 1.221-11.85 1.221-17.94z" fill="#efedef"/></g><circle cx="394.341" cy="250.199" fill="#f9f7f8" r="93.279"/><circle cx="116.421" cy="250.199" fill="#f9f7f8" r="93.279"/><g fill="#efedef"><path d="m69.212 250.199c0-43.566 29.878-80.155 70.254-90.411-7.368-1.872-15.095-2.869-23.045-2.869-51.517 0-93.279 41.763-93.279 93.28s41.762 93.279 93.279 93.279c7.95 0 15.667-.998 23.035-2.87-40.376-10.255-70.244-46.843-70.244-90.409z"/><path d="m158.122 166.744c-15.715 24.08-24.233 53.278-24.233 83.908 0 30.339 8.357 59.273 23.788 83.221 30.821-15.226 52.022-46.972 52.022-83.675.001-36.526-20.997-68.143-51.577-83.454z"/><path d="m301.062 250.199c0 36.829 21.346 68.668 52.34 83.833 15.496-23.978 23.891-52.973 23.891-83.379 0-30.697-8.554-59.956-24.335-84.066-30.753 15.249-51.896 46.959-51.896 83.612z"/></g><ellipse cx="255.591" cy="250.652" fill="#f9f7f8" rx="101.702" ry="119.939"/><g id="XMLID_757_"><g><path d="m283.631 393.559v7.94c0 5.777-4.683 10.46-10.46 10.46h-35.15c-5.782 0-10.47-4.688-10.47-10.47v-7.93h-18.69c-26.52 0-52.23-9.23-72.7-26.1l-12.27-10.12c-3.91-3.22-8.82-4.98-13.89-4.98h-29.078c-1.709 0-2.614-2.022-1.474-3.296l8.122-9.084c9.06-10.13 22.01-15.92 35.61-15.92h23.96c6.89 0 12.31-5.83 11.88-12.71-.89-14.3-5.17-28.57-11.94-42.82-1.95-4.09 2.63-8.27 6.51-5.93 18.07 10.9 35.12 32.72 51.6 55.89 5.8 8.16 13.4 14.66 22.04 19.13 8.65 4.46 18.35 6.89 28.36 6.89 20.02 0 38.8-9.71 50.4-26.02 16.48-23.17 33.53-44.99 51.6-55.89 3.88-2.34 8.46 1.84 6.51 5.93-6.77 14.25-11.05 28.52-11.94 42.82-.43 6.88 4.99 12.71 11.88 12.71h23.96c13.6 0 26.55 5.79 35.61 15.92l7.283 8.145c1.464 1.637.302 4.235-1.895 4.235h-27.818c-5.07 0-9.98 1.76-13.89 4.98l-12.27 10.12c-20.47 16.87-46.18 26.1-72.7 26.1z" fill="#80d261"/></g></g><g><path d="m258.719 399.388c-5.984 0-10.839-4.979-10.839-11.127 0-4.665-3.782-8.446-8.446-8.446h-10.902c-27.455 0-54.071-9.819-75.262-27.765l-12.702-10.765c-4.048-3.425-9.131-5.297-14.38-5.297h-34.577c-1.415 1.246-2.769 2.571-4.04 3.992l-8.162 9.128c-1.124 1.257-.232 3.252 1.455 3.252h29.137c5.07 0 9.98 1.76 13.89 4.98l12.27 10.12c20.47 16.87 46.18 26.1 72.7 26.1h16.342c1.297 0 2.348 1.051 2.348 2.348v5.592c0 5.777 4.683 10.46 10.46 10.46h35.15c5.782 0 10.47-4.688 10.47-10.47v-2.101h-24.912z" fill="#68ca44"/></g></g></g><g><path d="m496.538 251.616c0-31.239-14.016-60.354-38.454-79.878-3.239-2.587-7.957-2.059-10.541 1.178-2.586 3.236-2.059 7.956 1.178 10.541 20.856 16.662 32.817 41.505 32.817 68.159 0 35.602-21.84 67.72-54.668 80.925-10.31-10.191-24.287-15.982-38.867-15.982h-23.96c-1.649 0-2.709-.865-3.193-1.382-.495-.526-1.311-1.664-1.204-3.362.795-12.737 4.47-25.841 11.233-40.061 2.31-4.854 1.176-10.548-2.82-14.168-3.985-3.611-9.748-4.177-14.339-1.408-19.41 11.709-37.347 34.776-53.838 57.96-10.186 14.318-26.742 22.867-44.29 22.867-9.121 0-18.171-2.327-26.174-6.729-3.629-1.996-8.189-.672-10.187 2.956-1.997 3.63-.673 8.19 2.956 10.187 10.212 5.617 21.763 8.587 33.404 8.587 22.394 0 43.52-10.906 56.513-29.173 13.01-18.288 26.852-36.427 41.018-47.896-4.941 12.409-7.718 24.247-8.447 35.943-.335 5.355 1.576 10.665 5.242 14.568 3.649 3.883 8.798 6.11 14.126 6.11h23.96c11.391 0 22.281 4.844 29.909 13.296h-16.732c-6.79 0-13.415 2.379-18.656 6.698l-12.276 10.118c-19.079 15.726-43.203 24.387-67.929 24.387h-11.189v-.722c0-4.143-3.357-7.5-7.5-7.5s-7.5 3.357-7.5 7.5v16.16c0 1.636-1.33 2.966-2.965 2.966h-35.145c-1.635 0-2.966-1.33-2.966-2.966v-16.16c0-4.143-3.358-7.5-7.5-7.5s-7.5 3.357-7.5 7.5v.722h-11.189c-24.725 0-48.85-8.661-67.93-24.387l-12.275-10.118c-5.24-4.319-11.866-6.698-18.656-6.698h-16.733c7.628-8.451 18.519-13.296 29.909-13.296h23.96c5.328 0 10.476-2.228 14.125-6.11 3.667-3.902 5.578-9.212 5.244-14.568-.73-11.693-3.506-23.53-8.446-35.938 13.598 11.016 26.704 28 38.062 43.763 2.422 3.361 7.109 4.125 10.469 1.701 3.361-2.421 4.122-7.108 1.701-10.469-14.554-20.201-31.975-42.386-50.832-53.761-4.59-2.768-10.353-2.201-14.337 1.408-3.997 3.62-5.13 9.314-2.821 14.169 6.764 14.22 10.439 27.324 11.234 40.061.106 1.697-.709 2.836-1.205 3.362-.485.517-1.544 1.382-3.193 1.382h-23.96c-14.441 0-28.288 5.687-38.568 15.697-32.425-13.376-53.967-45.329-53.967-80.64 0-24.526 10.419-48.058 28.585-64.56 3.066-2.785 3.293-7.529.508-10.595-2.785-3.067-7.528-3.295-10.594-.509-21.289 19.34-33.499 46.918-33.499 75.663 0 39.567 23.089 75.524 58.332 92.308l-3.069 3.43c-1.972 2.204-2.465 5.362-1.257 8.063 1.207 2.7 3.889 4.438 6.847 4.438h33.506c3.317 0 6.555 1.162 9.115 3.272l12.276 10.118c21.76 17.936 49.272 27.813 77.47 27.813h11.189v.438c0 7.227 4.299 13.455 10.466 16.304v86.883c0 4.143 3.358 7.5 7.5 7.5s7.5-3.357 7.5-7.5v-85.221h20.144v85.221c0 4.143 3.357 7.5 7.5 7.5s7.5-3.357 7.5-7.5v-86.881c6.167-2.849 10.465-9.077 10.465-16.304v-.438h11.189c28.197 0 55.71-9.877 77.47-27.813l12.275-10.117c2.562-2.111 5.799-3.273 9.116-3.273h33.506c2.958 0 5.64-1.738 6.847-4.438s.715-5.857-1.257-8.063l-2.77-3.096c35.65-16.636 59.032-52.771 59.032-92.642z"/><path d="m81.193 171.778c.968 0 1.953-.188 2.902-.588 12.678-5.325 26.343-7.563 40.317-6.525.368.027 8.386.956 11.895 1.712.532.114 1.063.17 1.586.17 3.458 0 6.567-2.406 7.325-5.923.872-4.049-1.704-8.039-5.753-8.911-2.54-.547-5.112-.975-7.697-1.325-.327-3.69-.509-7.389-.509-11.056 0-68.557 55.775-124.332 124.332-124.332s124.332 55.775 124.332 124.332c0 3.708-.185 7.449-.52 11.181-.234.034-.469.062-.703.098-3.243.498-6.493 1.16-9.661 1.968-4.014 1.023-6.438 5.106-5.415 9.12.864 3.393 3.915 5.649 7.262 5.649.613 0 1.237-.076 1.858-.234 2.699-.688 5.469-1.252 8.234-1.677 1.441-.222 3.993-.519 5.453-.668-.001-.003 5.46-.349 7.909-.349 9.8 0 19.428 1.618 28.616 4.809 3.91 1.36 8.186-.713 9.545-4.625 1.358-3.912-.712-8.186-4.625-9.545-10.706-3.718-21.916-5.614-33.32-5.639.243-3.369.366-6.741.366-10.088.001-76.828-62.503-139.332-139.331-139.332s-139.332 62.504-139.332 139.332c0 3.35.123 6.724.367 10.095-13.278.153-26.172 2.821-38.342 7.936-3.819 1.604-5.614 6.001-4.009 9.819 1.206 2.87 3.988 4.596 6.918 4.596z"/><path d="m356.138 164.618c-1.961-3.649-6.51-5.017-10.157-3.052-3.349 1.801-6.588 3.826-9.723 6.004-5.889-8.136-13.024-15.392-21.271-21.537-17.266-12.867-37.805-19.668-59.396-19.668s-42.129 6.801-59.396 19.668c-8.084 6.024-15.095 13.118-20.917 21.059-1.148-.784-2.308-1.552-3.484-2.284-3.516-2.19-8.142-1.115-10.332 2.401s-1.115 8.141 2.401 10.331c1.18.734 2.341 1.509 3.49 2.303-2.668 5.125-4.914 10.498-6.678 16.098-1.245 3.95.949 8.162 4.9 9.406 3.952 1.245 8.163-.949 9.407-4.9 11.132-35.338 43.526-59.081 80.608-59.081 37.083 0 69.477 23.743 80.608 59.081 1.008 3.201 3.964 5.249 7.151 5.249.746 0 1.506-.112 2.255-.349 3.951-1.244 6.145-5.456 4.9-9.406-1.703-5.408-3.856-10.605-6.403-15.572 2.888-2.04 5.884-3.926 8.984-5.593 3.65-1.963 5.016-6.51 3.053-10.158z"/></g></g></svg>