<?xml version="1.0" encoding="iso-8859-1"?>
<!-- Generator: Adobe Illustrator 19.0.0, SVG Export Plug-In . SVG Version: 6.00 Build 0)  -->
<svg version="1.1" id="Capa_1" xmlns="http://www.w3.org/2000/svg" xmlns:xlink="http://www.w3.org/1999/xlink" x="0px" y="0px"
	 viewBox="0 0 511.998 511.998" style="enable-background:new 0 0 511.998 511.998;" xml:space="preserve">
<polygon style="fill:#C1583F;" points="422.142,301.142 306.686,319.233 189.267,310.188 180.222,409.601 153.086,409.601 
	153.086,355.414 134.995,301.142 116.99,292.182 80.809,210.86 26.622,210.86 8.531,183.724 62.718,111.446 107.945,102.401 
	134.995,120.492 171.177,129.537 349.865,128.001 409.598,110.934 485.374,120.492 503.465,165.633 503.465,292.182 
	467.283,409.601 431.187,409.601 449.278,355.414 "/>
<g>
	<path style="fill:#993D26;" d="M102.398,162.134h-25.6c-4.71,0-8.533-3.823-8.533-8.533v-17.067h17.067v8.533h10.914l6.588-19.763
		l16.213,5.393l-8.533,25.6C109.344,159.788,106.076,162.143,102.398,162.134z"/>
	<path style="fill:#993D26;" d="M401.5,284.298l-8.533-25.6c-0.29-0.87-0.435-1.783-0.435-2.697v-34.133h17.067v32.751l8.098,24.286
		L401.5,284.298z"/>
	<path style="fill:#993D26;" d="M200.122,290.134l-16.93-2.125l3.516-27.964v-13.261h17.067v13.824c0,0.358-0.026,0.717-0.068,1.067
		L200.122,290.134z"/>
</g>
<path d="M19.522,215.596c1.587,2.372,4.25,3.797,7.1,3.797h48.64l33.963,76.254c0.802,1.818,2.219,3.294,4.002,4.181l14.771,7.373
	l16.538,49.596v52.804c0,4.71,3.823,8.533,8.533,8.533h27.136c4.429,0.017,8.132-3.354,8.533-7.757l8.286-91.034l109.022,8.397
	c0.666,0.068,1.34,0.051,2.005-0.06l109.227-17.143l22.758,45.534l-16.973,50.825c-1.493,4.471,0.922,9.301,5.385,10.795
	c0.879,0.299,1.809,0.444,2.739,0.444h36.096c3.746,0,7.049-2.449,8.149-6.025l36.19-117.41c0.247-0.819,0.375-1.664,0.375-2.517
	V165.633c0-1.084-0.205-2.167-0.614-3.174l-18.091-45.141c-1.152-2.867-3.763-4.898-6.827-5.291l-75.776-9.557
	c-1.143-0.145-2.304-0.06-3.413,0.265l-58.641,16.734l-176.444,1.519l-33.69-8.422l-25.813-17.263
	c-1.886-1.263-4.19-1.715-6.417-1.271l-45.227,9.045c-2.048,0.418-3.866,1.57-5.12,3.243L1.705,178.604
	c-2.167,2.893-2.278,6.835-0.273,9.847L19.522,215.596z M67.591,119.169l38.554-7.68l24.107,16.119
	c0.811,0.546,1.715,0.947,2.671,1.186l36.181,9.045c0.7,0.205,1.425,0.29,2.15,0.256l178.688-1.562
	c0.768-0.009,1.527-0.119,2.27-0.333l58.027-16.58l69.06,8.713l15.633,38.921v123.648l-33.954,110.165h-17.92l14.327-42.948
	c0.717-2.15,0.546-4.497-0.469-6.519l-27.127-54.272c-1.664-3.328-5.291-5.197-8.96-4.617l-114.483,17.903l-116.42-8.934
	c-4.651-0.358-8.73,3.081-9.156,7.731l-8.337,91.657h-10.812v-45.653c0-0.922-0.145-1.835-0.435-2.705l-18.091-54.263
	c-0.708-2.15-2.244-3.925-4.267-4.941l-15.249-7.595l-34.935-78.507c-1.365-3.081-4.429-5.069-7.799-5.069H31.187l-12.203-18.321
	L67.591,119.169z"/>
<path d="M76.798,162.134h25.6c3.678,0,6.938-2.347,8.098-5.837l8.533-25.6l-16.213-5.393l-6.571,19.763H85.331v-8.533H68.265v17.067
	C68.265,158.311,72.079,162.134,76.798,162.134z"/>
<path d="M401.5,284.298l16.213-5.393l-8.115-24.286v-32.751h-17.067v34.133c0,0.913,0.145,1.826,0.435,2.697L401.5,284.298z"/>
<path d="M203.706,261.676c0.043-0.35,0.068-0.708,0.068-1.067v-13.824h-17.067v13.295l-3.516,27.964l16.93,2.091L203.706,261.676z"
	/>
<g>
</g>
<g>
</g>
<g>
</g>
<g>
</g>
<g>
</g>
<g>
</g>
<g>
</g>
<g>
</g>
<g>
</g>
<g>
</g>
<g>
</g>
<g>
</g>
<g>
</g>
<g>
</g>
<g>
</g>
</svg>
