<svg xmlns="http://www.w3.org/2000/svg" viewBox="0 0 50 50"><path d="M25 0C13.223 0 4 4.395 4 10s9.223 10 21 10c11.773 0 21-4.395 21-10S36.773 0 25 0zm-8.5 8c1.934 0 3.5.672 3.5 1.5S18.434 11 16.5 11 13 10.328 13 9.5 14.566 8 16.5 8zM5 16.094v5.562a.92.92 0 01-.156.532c-.574.863-1.422 2.796-.032 4.687 1.391 1.89 6.477 3.918 10.625 4.938.536.132.852.683.72 1.218a.993.993 0 01-1.22.719C11.56 32.922 6.88 31.254 5 29.781v6.875c0 .196-.078.399-.188.563C4.239 38.082 4 39.309 4 40c0 6.277 10.7 10 21 10s21-3.734 21-9.969c0-.687-.238-1.98-.813-2.843-.109-.165-.187-.333-.187-.532V29.75c-1.879 1.477-6.59 3.2-9.969 4.031a.845.845 0 01-.218.032c-.45 0-.856-.325-.97-.782a.97.97 0 01.72-1.187c4.148-1.02 9.312-3.012 10.593-4.844 1.282-1.832.606-3.918.032-4.781-.11-.164-.188-.332-.188-.532v-5.593C41.113 19.68 33.785 22 25 22c-8.781 0-16.11-2.324-20-5.906zM25 24s6 6.707 6 10.406C31 37.508 28.3 40 25 40s-6-2.492-6-5.594C19 30.707 25 24 25 24zm-.313 4.406c-1.101 2.098-3 4.407-3 5.907 0 1 .399 2.394 2 3.093-.199-.601-.593-1.894-.593-2.593 0-2.102 1.492-5.31 1.593-6.407z"/></svg>