<svg id="line_color" height="512" viewBox="0 0 74 74" width="512" xmlns="http://www.w3.org/2000/svg" data-name="line color"><path d="m27.708 22.374c-9.694 0-20.365-2.017-21.044-5.756a2.235 2.235 0 0 1 -.04-.375c0-3.993 10.863-6.148 21.084-6.148s21.085 2.155 21.085 6.148a2.2 2.2 0 0 1 -.039.369c-.68 3.745-11.354 5.762-21.046 5.762zm0-11.279c-11.836 0-20.084 2.713-20.084 5.148a1.265 1.265 0 0 0 .024.2c.433 2.377 8.6 4.929 20.06 4.929s19.628-2.552 20.062-4.935a1.223 1.223 0 0 0 .023-.2c0-2.429-8.249-5.137-20.085-5.137z" fill="#323c6b"/><path d="m66.88 59.351c0 5.746-3.56 9.678-8.22 10.427-.09.45-.79.8-1.64.8s-1.56-.355-1.65-.8c-4.67-.749-8.22-4.681-8.22-10.427 0-5.228 4.42-8.364 9.87-8.364s9.86 3.136 9.86 8.364z" fill="#f7a44a"/><path d="m66.88 59.35c0 5.75-3.56 9.68-8.22 10.43-.09.45-.79.8-1.64.8s-1.56-.35-1.65-.8a9.362 9.362 0 0 1 -5.29-2.72 9.232 9.232 0 0 0 2.79.91c.09.45.79.8 1.65.8s1.55-.35 1.64-.8c4.66-.75 8.22-4.69 8.22-10.43a7.636 7.636 0 0 0 -2.07-5.38 7.742 7.742 0 0 1 4.57 7.19z" fill="#f48e18"/><path d="m56.954 51.078a.5.5 0 0 1 -.5-.461 5.214 5.214 0 0 1 4.16-5.16.5.5 0 1 1 .231.972 4.254 4.254 0 0 0 -3.394 4.111.5.5 0 0 1 -.46.537z" fill="#323c6b"/><path d="m54.7 48.063a3.585 3.585 0 0 1 -.757-2.58 3.585 3.585 0 0 1 2.592.717 3.582 3.582 0 0 1 .757 2.581 3.583 3.583 0 0 1 -2.592-.718z" fill="#27ccbc"/><path d="m56.916 49.3a3.722 3.722 0 0 1 -2.567-.879 4.058 4.058 0 0 1 -.9-2.986.5.5 0 0 1 .44-.447 4.063 4.063 0 0 1 3 .859 4.059 4.059 0 0 1 .9 2.986.5.5 0 0 1 -.44.446 3.8 3.8 0 0 1 -.433.021zm-2.482-3.33a2.109 2.109 0 0 0 2.366 2.33 2.109 2.109 0 0 0 -2.365-2.328z" fill="#323c6b"/><path d="m57.02 71.083a2.311 2.311 0 0 1 -2-.859c-5.02-.937-8.37-5.27-8.37-10.873 0-5.219 4.264-8.864 10.37-8.864s10.36 3.645 10.36 8.864c0 5.6-3.35 9.934-8.366 10.873a2.3 2.3 0 0 1 -1.994.859zm0-19.6c-5.517 0-9.37 3.234-9.37 7.864 0 5.194 3.134 9.185 7.8 9.933a.5.5 0 0 1 .411.4c.025.12.448.4 1.16.4s1.126-.283 1.15-.4a.5.5 0 0 1 .411-.395c4.665-.749 7.8-4.741 7.8-9.933-.002-4.631-3.851-7.865-9.362-7.865z" fill="#323c6b"/><path d="m47.033 5.077-7.653 1.8-5.7 48.117-3.63-3.017 5.7-48.117 10.067-2.368z" fill="#e1e6e9"/><path d="m33.68 55.494a.5.5 0 0 1 -.32-.116l-3.63-3.016a.5.5 0 0 1 -.177-.444l5.7-48.118a.5.5 0 0 1 .382-.428l10.065-2.372a.5.5 0 0 1 .588.326l1.215 3.585a.5.5 0 0 1 -.359.647l-7.309 1.726-5.659 47.768a.5.5 0 0 1 -.5.442zm-3.1-3.728 2.714 2.255 5.591-47.2a.5.5 0 0 1 .382-.428l7.117-1.675-.894-2.635-9.284 2.184z" fill="#323c6b"/><path d="m46.05 43.02-1.99 23.89a4.369 4.369 0 0 1 -4.36 4.01h-23.97a4.4 4.4 0 0 1 -4.38-4.01l-2.13-25.65c3.03-.7 8.7-1.31 12.62 2.77 2.54 2.68 6.33 2.22 9.67.93a31.906 31.906 0 0 1 14.54-1.94z" fill="#f7a44a"/><path d="m46.05 43.02-1.99 23.89a4.369 4.369 0 0 1 -4.36 4.01h-23.97a4.4 4.4 0 0 1 -4.38-4.01l-.14-1.66a4.4 4.4 0 0 0 3.94 2.45h23.97a4.278 4.278 0 0 0 .81-.08 3.416 3.416 0 0 0 .13-.71l1.99-23.89c-.39-.04-.78-.07-1.17-.08.39-.03.78-.05 1.18-.05a30.118 30.118 0 0 1 3.15.08v-.01q.42.015.84.06z" fill="#f48e18"/><path d="m42.06 42.89-.01.13c-.39-.04-.78-.07-1.17-.08.39-.03.78-.05 1.18-.05z" fill="#fff"/><g fill="#323c6b"><path d="m39.7 71.42h-23.97a4.885 4.885 0 0 1 -4.878-4.464l-2.13-25.656a.5.5 0 0 1 .385-.529c3.146-.727 9.033-1.315 13.093 2.912 2 2.107 5.068 2.379 9.13.81a32.554 32.554 0 0 1 14.77-1.971.5.5 0 0 1 .451.54l-1.99 23.89a4.844 4.844 0 0 1 -4.861 4.468zm-29.946-29.766 2.094 25.215a3.89 3.89 0 0 0 3.882 3.551h23.97a3.851 3.851 0 0 0 3.862-3.551l1.948-23.394a31.5 31.5 0 0 0 -13.82 1.951c-4.412 1.7-7.943 1.342-10.213-1.052-3.544-3.689-8.702-3.348-11.723-2.72z"/><path d="m66.805 52.258a.5.5 0 0 1 -.337-.13c-.191-.174-.388-.343-.592-.505a.5.5 0 0 1 .624-.783c.221.177.434.36.641.548a.5.5 0 0 1 -.336.87z"/><path d="m69.813 61.285a.37.37 0 0 1 -.047 0 .5.5 0 0 1 -.452-.544c.044-.463.066-.929.066-1.388a10.178 10.178 0 0 0 -1.613-5.573.5.5 0 1 1 .841-.539 11.149 11.149 0 0 1 1.772 6.112c0 .49-.024.988-.069 1.481a.5.5 0 0 1 -.498.451z"/><path d="m7.938 62.583a.5.5 0 0 1 -.5-.458l-.682-8.313a.5.5 0 1 1 1-.082l.683 8.312a.5.5 0 0 1 -.458.54z"/><path d="m7.021 51.438a.5.5 0 0 1 -.5-.459l-.104-1.279a.5.5 0 0 1 1-.083l.102 1.283a.5.5 0 0 1 -.456.54z"/></g><path d="m48.26 16.53-2.21 26.49a31.906 31.906 0 0 0 -14.54 1.94c-3.34 1.29-7.13 1.75-9.67-.93-3.92-4.08-9.59-3.47-12.62-2.77l-2.06-24.73c.54 2.97 9.54 5.34 20.55 5.34s20.01-2.37 20.55-5.34z" fill="#eeefee"/><path d="m48.26 16.53-2.21 26.49a31.3 31.3 0 0 0 -3.99-.13l1.94-23.21c2.49-.88 4.04-1.96 4.26-3.15z" fill="#e1e6e9"/><path d="m26.692 46.483a6.9 6.9 0 0 1 -5.215-2.109c-3.716-3.867-9.2-3.307-12.145-2.627a.508.508 0 0 1 -.407-.083.5.5 0 0 1 -.2-.363l-2.063-24.729a.5.5 0 0 1 .99-.131c.433 2.38 8.6 4.929 20.058 4.929s19.625-2.549 20.058-4.929a.5.5 0 0 1 .99.131l-2.21 26.49a.5.5 0 0 1 -.546.456 31.573 31.573 0 0 0 -14.312 1.908 14.062 14.062 0 0 1 -4.998 1.057zm-13.256-6.223a11.774 11.774 0 0 1 8.764 3.424c2 2.107 5.068 2.379 9.13.81a32.489 32.489 0 0 1 14.263-2.016l2.012-24.114c-3.105 2.614-11.839 4.006-19.895 4.006s-16.787-1.392-19.9-4.006l1.861 22.287a19.163 19.163 0 0 1 3.765-.391z" fill="#323c6b"/><path d="m26.69 50.465a7.04 7.04 0 0 1 -5.322-2.156.65.65 0 0 1 .944-.894c1.949 2.056 4.966 2.315 8.963.77a.65.65 0 0 1 .469 1.213 14.2 14.2 0 0 1 -5.054 1.067z" fill="#fff"/><path d="m34.551 48.446a.65.65 0 0 1 -.169-1.278q.513-.138 1.027-.259a.65.65 0 1 1 .3 1.265q-.495.117-.986.249a.622.622 0 0 1 -.172.023z" fill="#fff"/></svg>