<svg id="Capa_1" enable-background="new 0 0 512 512" height="512" viewBox="0 0 512 512" width="512" xmlns="http://www.w3.org/2000/svg"><path d="m125.49 336.596v108.231h44.357v-77.754c-16.831-7.033-31.911-17.483-44.357-30.477z" fill="#ffc4c8"/><path d="m125.49 336.596v108.231h20v-91.129c-7.225-5.029-13.927-10.762-20-17.102z" fill="#fdb4ba"/><path d="m353.192 377.112h-7.57v67.714h44.357v-73.016c-11.682 3.446-24.027 5.302-36.787 5.302z" fill="#ffc4c8"/><path d="m353.192 377.112h-7.57v67.714h20v-68.315c-4.094.39-8.238.601-12.43.601z" fill="#fdb4ba"/><path d="m353.192 115.198h-114.938v32.5l.081.189c4.37 10.164 7.169 20.908 8.317 31.934.36 3.454 1.73 6.598 3.962 9.092 9.85 11.007 15.056 23.449 15.056 35.979 0 42.27-57.683 76.658-128.585 76.658-12.924 0-25.405-1.147-37.18-3.272 16.631 38.014 50.831 66.763 92.18 75.823 4.608 1.01 7.911 5.055 7.911 9.773v60.953h44.357v-57.714c0-5.523 4.477-10 10-10h98.839c18.786 0 36.678-4.013 52.867-11.219 6.616-2.945 14.069 1.884 14.069 9.126v69.807h44.357v-121.806c0-5.029 1.269-9.973 3.683-14.384 10.179-18.598 15.981-39.893 15.981-62.481 0-72.027-58.931-130.958-130.957-130.958z" fill="#fe99a0"/><path d="m199.996 414.443h20v-50.569c0-4.717-3.304-8.763-7.911-9.773-31.995-7.01-59.7-25.818-78.307-51.576-11.563-.174-22.747-1.26-33.367-3.135 16.808 37.459 50.731 65.74 91.674 74.71 4.608 1.01 7.911 5.055 7.911 9.773z" fill="#fd8087"/><path d="m239.254 147.492v-70.314c0-5.95-5.168-10.577-11.085-9.948-21.455 2.281-37.077 11.084-48.314 21.501 26.628 11.11 48.01 32.278 59.399 58.761z" fill="#fdb4ba"/><g fill="#fe99a0"><path d="m198.894 98.965c10.122-8.152 23.305-14.816 40.36-17.279v-4.508c0-5.95-5.168-10.577-11.085-9.948-21.455 2.281-37.077 11.084-48.314 21.501 6.705 2.798 13.075 6.236 19.039 10.234z"/><path d="m94.315 88.731c-11.238-10.418-26.86-19.22-48.314-21.501-5.917-.629-11.085 3.998-11.085 9.948v70.314c11.388-26.483 32.771-47.651 59.399-58.761z"/><path d="m94.315 88.731c-11.238-10.418-26.86-19.22-48.314-21.501-5.917-.629-11.085 3.998-11.085 9.948v70.314c11.388-26.483 32.771-47.651 59.399-58.761z"/></g><path d="m54.249 77.178c0-3.212 1.513-6.028 3.83-7.851-3.807-.927-7.823-1.645-12.078-2.098-5.917-.629-11.085 3.998-11.085 9.948v70.314c4.791-11.142 11.358-21.338 19.333-30.245z" fill="#fd8087"/><path d="m251.359 188.245c-2.12-2.369-3.383-5.367-3.712-8.528-5.828-55.919-53.101-99.515-110.562-99.515s-104.734 43.596-110.563 99.515c-.33 3.162-1.593 6.16-3.712 8.528-9.768 10.916-15.31 23.394-15.31 36.647 0 42.89 58.017 77.659 129.585 77.659s129.585-34.769 129.585-77.659c-.001-13.254-5.543-25.731-15.311-36.647z" fill="#ffc4c8"/><path d="m37.5 224.892c0-13.253 5.542-25.73 15.31-36.646 2.12-2.369 3.383-5.367 3.712-8.528 5.312-50.968 45.057-91.691 95.562-98.505-4.906-.662-9.912-1.01-15-1.01-57.461 0-104.734 43.596-110.562 99.515-.33 3.162-1.593 6.16-3.712 8.528-9.768 10.915-15.31 23.393-15.31 36.646 0 42.89 58.017 77.659 129.585 77.659 5.074 0 10.078-.181 15-.521-64.5-4.457-114.585-37.29-114.585-77.138z" fill="#fdb4ba"/><path d="m159.152 261.283h-44.135c-15.4 0-28-12.6-28-28v-2.57c0-15.4 12.6-28 28-28h44.135c15.4 0 28 12.6 28 28v2.57c0 15.4-12.6 28-28 28z" fill="#fe99a0"/><path d="m107.017 233.283v-2.57c0-15.4 12.6-28 28-28h-20c-15.4 0-28 12.6-28 28v2.57c0 15.4 12.6 28 28 28h20c-15.4 0-28-12.6-28-28z" fill="#fd8087"/><path d="m125.49 414.443h44.357v30.384h-44.357z" fill="#fe99a0"/><path d="m125.49 414.443h20v30.384h-20z" fill="#fd8087"/><path d="m345.622 414.443h44.357v30.384h-44.357z" fill="#fe99a0"/><path d="m345.622 414.443h20v30.384h-20z" fill="#fd8087"/><path d="m199.996 414.443h44.357v30.384h-44.357z" fill="#ffc4c8"/><path d="m199.996 414.443h20v30.384h-20z" fill="#fdb4ba"/><path d="m420.129 414.443h44.357v30.384h-44.357z" fill="#ffc4c8"/><path d="m420.129 414.443h20v30.384h-20z" fill="#fdb4ba"/><path d="m325 122.698h28.192c32.831 0 63.794 12.882 87.185 36.272 23.39 23.39 36.271 54.353 36.271 87.185 0 20.519-5.207 40.88-15.06 58.88-3.012 5.503-4.604 11.722-4.604 17.985v27.72c0 4.142 3.357 7.5 7.5 7.5s7.5-3.358 7.5-7.5v-27.72c0-3.753.955-7.482 2.762-10.784 11.057-20.202 16.901-43.053 16.901-66.082 0-29.92-9.542-57.652-25.739-80.317h.491c25.144 0 45.6-20.456 45.6-45.6s-20.456-45.6-45.6-45.6h-36.406c-4.143 0-7.5 3.358-7.5 7.5s3.357 7.5 7.5 7.5h36.407c16.873 0 30.6 13.727 30.6 30.6s-13.727 30.6-30.6 30.6h-12.877c-25.242-26.558-60.886-43.14-100.331-43.14h-28.192c-4.143 0-7.5 3.358-7.5 7.5s3.357 7.501 7.5 7.501z"/><path d="m79.517 230.713v2.569c0 19.575 15.925 35.5 35.5 35.5h44.136c19.575 0 35.5-15.925 35.5-35.5v-2.569c0-19.575-15.925-35.5-35.5-35.5h-44.136c-19.576 0-35.5 15.926-35.5 35.5zm15 0c0-11.304 9.196-20.5 20.5-20.5h44.136c11.304 0 20.5 9.196 20.5 20.5v2.569c0 11.304-9.196 20.5-20.5 20.5h-44.136c-11.304 0-20.5-9.196-20.5-20.5z"/><path d="m120.15 243.496c4.143 0 7.5-3.358 7.5-7.5v-9.032c0-4.142-3.357-7.5-7.5-7.5s-7.5 3.358-7.5 7.5v9.032c0 4.142 3.358 7.5 7.5 7.5z"/><path d="m154.019 243.496c4.143 0 7.5-3.358 7.5-7.5v-9.032c0-4.142-3.357-7.5-7.5-7.5s-7.5 3.358-7.5 7.5v9.032c0 4.142 3.357 7.5 7.5 7.5z"/><path d="m107.271 173.542v-16.963c0-4.142-3.357-7.5-7.5-7.5s-7.5 3.358-7.5 7.5v16.963c0 4.142 3.357 7.5 7.5 7.5s7.5-3.358 7.5-7.5z"/><path d="m181.898 173.542v-16.963c0-4.142-3.357-7.5-7.5-7.5s-7.5 3.358-7.5 7.5v16.963c0 4.142 3.357 7.5 7.5 7.5s7.5-3.358 7.5-7.5z"/><path d="m504.5 437.326h-32.515v-51.085c0-4.142-3.357-7.5-7.5-7.5s-7.5 3.358-7.5 7.5v20.702h-29.356v-31.923c0-5.947-2.977-11.431-7.962-14.668-4.989-3.241-11.219-3.731-16.657-1.309-15.758 7.014-32.52 10.571-49.818 10.571h-98.838c-9.649 0-17.5 7.851-17.5 17.5v19.83h-29.357v-23.069c0-8.286-5.677-15.317-13.806-17.099-34.215-7.497-62.715-29.177-79.821-57.945 7.601.792 15.354 1.22 23.216 1.22 28.088 0 55.048-5.164 77.967-14.933 3.81-1.625 5.582-6.03 3.958-9.84-1.625-3.81-6.025-5.583-9.841-3.958-21.074 8.983-46.001 13.732-72.084 13.732-33.275 0-64.447-7.699-87.775-21.679-22.126-13.261-34.311-30.478-34.311-48.481 0-11.062 4.508-21.709 13.397-31.645 3.15-3.519 5.081-7.928 5.585-12.753 2.641-25.336 14.536-48.757 33.496-65.948 19.092-17.311 43.812-26.844 69.606-26.844s50.514 9.533 69.605 26.844c18.96 17.191 30.855 40.612 33.497 65.95.503 4.823 2.434 9.232 5.583 12.75 8.891 9.936 13.398 20.583 13.398 31.646 0 13.83-7.231 27.296-20.912 38.943-3.154 2.685-3.534 7.418-.85 10.573 2.685 3.154 7.418 3.534 10.572.849 17.134-14.585 26.189-32.001 26.189-50.365 0-14.656-5.955-29.057-17.221-41.648-1.031-1.153-1.669-2.642-1.842-4.304-1.191-11.425-4.031-22.505-8.353-32.946v-23.296h42.25c4.143 0 7.5-3.358 7.5-7.5s-3.357-7.5-7.5-7.5h-42.246v-30.52c0-4.954-2.113-9.695-5.799-13.009-3.69-3.319-8.644-4.922-13.579-4.397-18.712 1.99-35.316 8.933-49.016 20.328-13.084-4.852-27.035-7.397-41.275-7.397s-28.192 2.546-41.276 7.397c-13.699-11.395-30.304-18.339-49.015-20.328-4.931-.523-9.889 1.077-13.579 4.397-3.686 3.313-5.799 8.055-5.799 13.009v68.813c-4.323 10.441-7.163 21.522-8.354 32.947-.173 1.665-.811 3.153-1.842 4.306-11.265 12.591-17.22 26.992-17.22 41.648 0 23.483 14.773 45.27 41.6 61.346 15.363 9.207 33.718 15.911 53.693 19.822 4.692 9.729 10.515 18.947 17.421 27.407 1.701 2.084 3.464 4.111 5.277 6.086v97.772h-36.822c-4.143 0-7.5 3.358-7.5 7.5s3.357 7.5 7.5 7.5h423.331c4.143 0 7.5-3.358 7.5-7.5s-3.357-7.499-7.5-7.499zm-275.538-362.638c.982-.105 1.65.353 1.964.635.309.278.828.889.828 1.855v42.634c-4.443-5.869-9.451-11.357-14.988-16.378-7.003-6.35-14.67-11.78-22.824-16.236 9.168-6.21 20.663-10.984 35.02-12.51zm-186.546 2.49c0-.966.519-1.577.828-1.855.282-.254.855-.65 1.682-.65.091 0 .186.005.282.015 13.236 1.407 24.968 5.59 35.114 12.459-8.189 4.465-15.888 9.912-22.918 16.287-5.537 5.021-10.544 10.508-14.987 16.377v-42.633zm119.931 360.148h-29.357v-15.384h29.356v15.384zm0-30.384h-29.357v-53.286c9.005 7.296 18.878 13.446 29.356 18.289v34.997zm30.149 30.384h-15.149v-59.483c4.31 1.409 8.691 2.611 13.133 3.584 1.188.26 2.017 1.266 2.017 2.446v53.453zm44.358 0h-29.357v-15.384h29.357zm101.268 0h-86.269v-50.214c0-1.378 1.121-2.5 2.5-2.5h83.769zm44.357 0h-29.356v-15.384h29.356zm0-30.384h-29.356v-22.33h.069c9.944 0 19.729-1.055 29.287-3.135zm30.15 30.384h-15.15v-60.03c3.925-1.339 7.806-2.849 11.631-4.551 1.084-.482 1.961-.091 2.388.185.423.274 1.132.911 1.132 2.089v62.307zm44.356 0h-29.356v-15.384h29.356z"/></svg>