<svg xmlns="http://www.w3.org/2000/svg" viewBox="0 0 48 48"><path fill="#657c87" d="M16 36H0l.333-1 11.946-8a1 1 0 01.949.684L16 36zm16 0H16l.333-1 11.946-8a1 1 0 01.949.684L32 36zm16 0H32l.333-1 11.946-8a1 1 0 01.949.684L48 36zm-8-9H24l.333-1 11.946-8a1 1 0 01.949.684L40 27zm-8-9H16l.333-1 11.946-8a1 1 0 01.949.684L32 18zm-8 9H8l.333-1 11.946-8a1 1 0 01.949.684L24 27z"/><path fill="#b0bec5" d="M13.17 27.54L0 36l2.77-8.32c.14-.4.52-.68.95-.68h8.56c.38 0 .71.21.89.54zm16 0L16 36l2.77-8.32c.14-.4.52-.68.95-.68h8.56c.38 0 .71.21.89.54zm16 0L32 36l2.77-8.32c.14-.4.52-.68.95-.68h8.56c.38 0 .71.21.89.54zm-8-9L24 27l2.77-8.32c.14-.4.52-.68.95-.68h8.56c.38 0 .71.21.89.54zm-8-9L16 18l2.77-8.32c.14-.4.52-.68.95-.68h8.56c.38 0 .71.21.89.54zm-8 9L8 27l2.77-8.32c.14-.4.52-.68.95-.68h8.56c.38 0 .71.21.89.54z"/></svg>