<svg xmlns="http://www.w3.org/2000/svg" viewBox="0 0 48 48"><linearGradient id="a" x1="12.848" x2="34.131" y1="13.848" y2="35.131" gradientUnits="userSpaceOnUse"><stop offset="0" stop-color="#9dffce"/><stop offset="1" stop-color="#50d18d"/></linearGradient><path fill="url(#a)" d="M31.491 32.491c2.334-2.334 3.679-5.227 3.995-8.065.099-.89.618-1.695 1.464-1.967 1.155-.372 2.277-1.05 3.303-2.075 2.918-2.918 2.938-10.867 2.507-13.246a1.214 1.214 0 00-.972-.972c-2.378-.431-10.327-.411-13.246 2.507-1.026 1.026-1.704 2.148-2.075 3.303-.272.846-1.077 1.365-1.967 1.464-2.839.317-5.732 1.662-8.065 3.995s-3.679 5.227-3.995 8.065c-.099.89-.618 1.695-1.464 1.967-1.155.372-2.277 1.05-3.303 2.075-2.918 2.918-2.938 10.867-2.507 13.246.089.491.481.883.972.972 2.378.431 10.327.411 13.246-2.507 1.026-1.026 1.704-2.148 2.075-3.303.272-.846 1.077-1.365 1.967-1.464 2.839-.316 5.732-1.661 8.065-3.995z"/><linearGradient id="b" x1="15.465" x2="30.85" y1="16.465" y2="31.85" gradientUnits="userSpaceOnUse"><stop offset="0" stop-color="#21ad64"/><stop offset="1" stop-color="#088242"/></linearGradient><path fill="url(#b)" d="M28.533 29.533c2.948-2.948 3.31-7.365.808-9.866s-6.918-2.139-9.866.808-3.31 7.365-.808 9.866 6.918 2.14 9.866-.808z"/><linearGradient id="c" x1="2.955" x2="20.152" y1="26.955" y2="44.152" gradientUnits="userSpaceOnUse"><stop offset="0" stop-color="#21ad64"/><stop offset="1" stop-color="#088242"/></linearGradient><path fill="url(#c)" d="M16.079 40.079c2.306-2.306 2.573-5.778.597-7.755-1.977-1.977-5.449-1.71-7.755.597s-2.573 5.778-.597 7.755c1.977 1.977 5.449 1.71 7.755-.597z"/><linearGradient id="d" x1="25.955" x2="43.152" y1="3.955" y2="21.152" gradientUnits="userSpaceOnUse"><stop offset="0" stop-color="#21ad64"/><stop offset="1" stop-color="#088242"/></linearGradient><path fill="url(#d)" d="M39.079 17.079c2.306-2.306 2.573-5.778.597-7.755-1.977-1.977-5.449-1.71-7.755.597s-2.573 5.778-.597 7.755c1.977 1.977 5.449 1.71 7.755-.597z"/></svg>