<svg id="Capa_1" enable-background="new 0 0 512 512" height="512" viewBox="0 0 512 512" width="512" xmlns="http://www.w3.org/2000/svg"><g><g><path d="m368.162 73.779-117.952 51.949 5.79 137.373c6.672 0 13.256-1.522 19.251-4.449l90.161-44.032c4.421-2.159 7.225-6.649 7.225-11.57v-112.559c0-5.867-1.543-11.63-4.475-16.712z" fill="#fee6c1"/><path d="m177.513 88.609c.053 34.243.387 101.392.326 138.309l2.231 4.053 56.68 27.681c5.995 2.928 12.579 4.449 19.25 4.449v-139.924z" fill="#fcd79b"/><path d="m143.838 73.779-.001.001c-2.932 5.081-4.475 10.845-4.475 16.711v112.559c0 4.92 2.804 9.41 7.225 11.57l33.482 16.351c.266-24.498-.209-108.853-.209-139.6 0-.579.027-1.14.042-1.709z" fill="#fccc80"/><path d="m358.337 64.609-96.687-47.219c-3.566-1.741-7.735-1.741-11.301 0l-46.581 22.749c-8.051 6.584-24.389 23.293-25.027 50.686l77.259 37.73 112.162-54.776c-2.289-3.967-5.71-7.16-9.825-9.17z" fill="#fef0db"/><path d="m179.861 91.371c0-36.032 28.304-53.379 28.306-53.38l-54.504 26.618c-4.115 2.01-7.536 5.203-9.825 9.17z" fill="#fee6c1"/></g><g><path d="m507.525 306.593-117.952 51.949 5.79 137.374c6.672 0 13.256-1.522 19.251-4.449l90.161-44.032c4.421-2.159 7.225-6.649 7.225-11.57v-112.559c0-5.867-1.543-11.631-4.475-16.713z" fill="#fee6c1"/><path d="m316.875 321.424c.053 34.243.387 101.392.326 138.309l2.231 4.053 56.68 27.681c5.995 2.928 12.579 4.449 19.25 4.449v-139.924z" fill="#fcd79b"/><path d="m283.201 306.593-.001.001c-2.932 5.081-4.475 10.845-4.475 16.711v112.559c0 4.92 2.804 9.41 7.225 11.57l33.482 16.351c.266-24.498-.209-108.853-.209-139.6 0-.579.027-1.14.042-1.709z" fill="#fccc80"/><path d="m497.7 297.424-96.687-47.22c-3.566-1.741-7.735-1.741-11.301 0l-46.581 22.749c-8.051 6.584-24.389 23.293-25.027 50.686l77.258 37.731 112.162-54.776c-2.288-3.967-5.709-7.16-9.824-9.17z" fill="#fef0db"/><path d="m319.224 324.186c0-36.032 28.304-53.379 28.306-53.38l-54.504 26.618c-4.115 2.01-7.536 5.203-9.825 9.17z" fill="#fee6c1"/></g><g><path d="m228.799 306.593-117.952 51.949 5.79 137.374c6.672 0 13.256-1.522 19.251-4.449l90.161-44.032c4.421-2.159 7.225-6.649 7.225-11.57v-112.559c.001-5.867-1.543-11.631-4.475-16.713z" fill="#fee6c1"/><path d="m38.15 321.424c.053 34.243.387 101.392.326 138.309l2.231 4.053 56.68 27.681c5.995 2.928 12.579 4.449 19.25 4.449v-139.924z" fill="#fcd79b"/><path d="m4.475 306.593-.001.001c-2.931 5.082-4.474 10.846-4.474 16.712v112.559c0 4.92 2.804 9.41 7.225 11.57l33.482 16.351c.266-24.498-.209-108.853-.209-139.6 0-.579.027-1.14.042-1.709z" fill="#fccc80"/><path d="m218.974 297.424-96.687-47.22c-3.566-1.741-7.735-1.741-11.301 0l-46.581 22.749c-8.051 6.584-24.389 23.293-25.027 50.686l77.258 37.731 112.162-54.776c-2.287-3.967-5.709-7.16-9.824-9.17z" fill="#fef0db"/><path d="m40.498 324.186c0-36.032 28.304-53.379 28.306-53.38l-54.504 26.618c-4.115 2.01-7.536 5.203-9.825 9.17z" fill="#fee6c1"/></g></g></svg>