<svg enable-background="new 0 0 110 110" height="512" viewBox="0 0 110 110" width="512" xmlns="http://www.w3.org/2000/svg"><g fill="#fed35b"><path d="m28.32551 23.184401h2.997154v65.158394h-2.997154z" transform="matrix(.999 -.038 .038 .999 -2.105 1.178)"/><path d="m43.8589134 58.0440636c-8.7354622 2.0440139-14.1599312 10.7824745-12.1159134 19.5179405 8.735466-2.0440216 14.1599693-10.782486 12.1159515-19.517952z"/><path d="m16.0038853 59.1070824c8.8658409 1.372303 14.9405231 9.6719246 13.5682182 18.5377617-8.8658409-1.3722992-14.9405632-9.6719284-13.5682564-18.5377693z"/><path d="m43.2610283 42.3772774c-8.7354622 2.044014-14.1599293 10.7824707-12.1159134 19.5179367 8.735466-2.0440178 14.1599693-10.7824821 12.1159554-19.5179482z"/><path d="m15.4060011 43.4402962c8.86584 1.372303 14.9405222 9.6719246 13.5682173 18.5377655-8.8658409-1.3723068-14.9405622-9.6719322-13.5682564-18.5377731z"/><path d="m42.663147 26.7104893c-8.735466 2.0440159-14.1599331 10.7824726-12.1159172 19.5179386 8.735466-2.0440178 14.1599693-10.7824821 12.1159554-19.5179482z"/><path d="m27.8736706 9.1561069-.0000439.0000019c-7.8933525 7.2423038-7.3158131 18.3460693 1.290062 24.8011665 7.8933982-7.2423057 7.3158493-18.3462113-1.2900181-24.8011684z"/><path d="m14.808116 27.7735081c8.86584 1.3723049 14.9405241 9.6719265 13.5682173 18.5377674-8.865839-1.3723068-14.9405622-9.6719322-13.5682564-18.5377731z"/><path d="m55.356827 48.757507h2.997154v65.158394h-2.997154z" transform="matrix(.561 .828 -.828 .561 92.328 -11.345)"/></g><g fill="#feda6f"><path d="m62.3397713 94.4553375c-6.3533401-6.3341446-16.6385345-6.3185883-22.972683.0347519 6.3533401 6.3341446 16.6385612 6.3186188 22.9727097-.0347214z"/><path d="m46.7108078 71.3735657c3.5224419 8.2509918-.3107834 17.7951965-8.5617714 21.3176346-3.522438-8.2509842.3107719-17.7952271 8.5617561-21.3176651z"/><path d="m75.3218842 85.6649857c-6.3533401-6.3341522-16.6385307-6.3185883-22.9726791.0347443 6.3533401 6.3341522 16.6385574 6.3186188 22.9727097-.0347214z"/><path d="m59.6929245 62.5832138c3.522438 8.2509842-.3107872 17.7951889-8.5617714 21.317627-3.5224419-8.2509842.3107681-17.7952271 8.5617561-21.3176651z"/><path d="m88.3040009 76.8746262c-6.3533401-6.3341446-16.6385345-6.3185883-22.9726791.0347519 6.3533401 6.3341446 16.6385574 6.3186188 22.9727097-.0347214z"/><path d="m95.3853912 55.0402794-.0000229-.0000343c-10.3205109-2.8710709-19.4402161 3.4895935-20.3695679 14.2071381 10.3205338 2.8711013 19.4403535-3.4896394 20.3695908-14.2071038z"/><path d="m72.6750412 53.7928581c3.522438 8.2509842-.310791 17.7951851-8.5617752 21.3176308-3.522438-8.2509842.3107681-17.7952271 8.5617599-21.3176689z"/></g></svg>